<svg xmlns="http://www.w3.org/2000/svg" width="48" height="48" viewBox="0 0 24 24" fill="none">
  <rect width="24" height="24" rx="6" fill="#14B8A6"/>
  <path d="M6 12c0-3.313 2.687-6 6-6s6 2.687 6 6-2.687 6-6 6-6-2.687-6-6z" fill="#071020" opacity="0.1"/>
  <path d="M8 12c0-2.209 1.791-4 4-4s4 1.791 4 4-1.791 4-4 4-4-1.791-4-4z" stroke="#071020" stroke-width="1.2" fill="none"/>
  <path d="M9.5 12c0-1.38 1.12-2.5 2.5-2.5s2.5 1.12 2.5 2.5S13.38 14.5 12 14.5 9.5 13.38 9.5 12z" fill="#071020"/>
</svg>